<?xml version="1.0" encoding="UTF-8" standalone="no"?>
<!-- Created by diasvg.py -->
<svg width="46.817cm" height="21.510cm" viewBox="5.513 2.900 52.330 24.410"
 xmlns="http://www.w3.org/2000/svg"
 xmlns:xlink="http://www.w3.org/1999/xlink">
<rect x="18.400" y="2.950" width="5.600" height="1.500" fill="#FFFFFF" stroke="none" stroke-width="0"/>
<rect x="18.400" y="2.950" width="5.600" height="1.500" fill="none" stroke="#000000" stroke-width="0.100" />
<text x="21.200" y="3.922"  fill="#000000" text-anchor="middle" font-size="0.80" font-family="sans" font-style="normal" font-weight="400">
Gate</text>
<rect x="16.823" y="9.570" width="5.600" height="1.500" fill="#FFFFFF" stroke="none" stroke-width="0"/>
<rect x="16.823" y="9.570" width="5.600" height="1.500" fill="none" stroke="#000000" stroke-width="0.100" />
<text x="19.623" y="10.543"  fill="#000000" text-anchor="middle" font-size="0.80" font-family="sans" font-style="normal" font-weight="400">
Settings</text>
<rect x="17.045" y="12.540" width="5.600" height="1.500" fill="#FFFFFF" stroke="none" stroke-width="0"/>
<rect x="17.045" y="12.540" width="5.600" height="1.500" fill="none" stroke="#000000" stroke-width="0.100" />
<text x="19.845" y="13.512"  fill="#000000" text-anchor="middle" font-size="0.80" font-family="sans" font-style="normal" font-weight="400">
Context</text>
<rect x="16.067" y="20.310" width="5.600" height="1.500" fill="#FFFFFF" stroke="none" stroke-width="0"/>
<rect x="16.067" y="20.310" width="5.600" height="1.500" fill="none" stroke="#000000" stroke-width="0.100" />
<text x="18.867" y="21.282"  fill="#000000" text-anchor="middle" font-size="0.80" font-family="sans" font-style="normal" font-weight="400">
Application</text>
<rect x="10.890" y="17.530" width="5.600" height="1.500" fill="#FFFFFF" stroke="none" stroke-width="0"/>
<rect x="10.890" y="17.530" width="5.600" height="1.500" fill="none" stroke="#000000" stroke-width="0.100" />
<text x="13.690" y="18.502"  fill="#000000" text-anchor="middle" font-size="0.80" font-family="sans" font-style="normal" font-weight="400">
RequestHandler</text>
<rect x="5.563" y="15.200" width="5.600" height="1.500" fill="#FFFFFF" stroke="none" stroke-width="0"/>
<rect x="5.563" y="15.200" width="5.600" height="1.500" fill="none" stroke="#000000" stroke-width="0.100" />
<text x="8.363" y="16.172"  fill="#000000" text-anchor="middle" font-size="0.80" font-family="sans" font-style="normal" font-weight="400">
PageStructure</text>
<rect x="31.485" y="19.120" width="5.600" height="1.500" fill="#FFFFFF" stroke="none" stroke-width="0"/>
<rect x="31.485" y="19.120" width="5.600" height="1.500" fill="none" stroke="#000000" stroke-width="0.100" />
<text x="34.285" y="20.092"  fill="#000000" text-anchor="middle" font-size="0.80" font-family="sans" font-style="normal" font-weight="400">
Request</text>
<rect x="39.308" y="20.640" width="5.600" height="1.500" fill="#FFFFFF" stroke="none" stroke-width="0"/>
<rect x="39.308" y="20.640" width="5.600" height="1.500" fill="none" stroke="#000000" stroke-width="0.100" />
<text x="42.108" y="21.612"  fill="#000000" text-anchor="middle" font-size="0.80" font-family="sans" font-style="normal" font-weight="400">
Controller</text>
<rect x="46.680" y="22.860" width="5.600" height="1.500" fill="#FFFFFF" stroke="none" stroke-width="0"/>
<rect x="46.680" y="22.860" width="5.600" height="1.500" fill="none" stroke="#000000" stroke-width="0.100" />
<text x="49.480" y="23.832"  fill="#000000" text-anchor="middle" font-size="0.80" font-family="sans" font-style="normal" font-weight="400">
Service</text>
<rect x="24.553" y="17.080" width="5.600" height="1.500" fill="#FFFFFF" stroke="none" stroke-width="0"/>
<rect x="24.553" y="17.080" width="5.600" height="1.500" fill="none" stroke="#000000" stroke-width="0.100" />
<text x="27.353" y="18.052"  fill="#000000" text-anchor="middle" font-size="0.80" font-family="sans" font-style="normal" font-weight="400">
Page</text>
<rect x="16.375" y="6.800" width="5.600" height="1.500" fill="#FFFFFF" stroke="none" stroke-width="0"/>
<rect x="16.375" y="6.800" width="5.600" height="1.500" fill="none" stroke="#000000" stroke-width="0.100" />
<text x="19.175" y="7.772"  fill="#000000" text-anchor="middle" font-size="0.80" font-family="sans" font-style="normal" font-weight="400">
Start-Skrip</text>
</svg>